<svg version="1.1" xmlns="http://www.w3.org/2000/svg" viewBox="-1478.4272585194753 -1390.0403261287129 2956.85451703895 2917.041870151812" fill="none" stroke="black" stroke-width="0.6%" vector-effect="non-scaling-stroke">
    <path d="M -1216.85329 492.14344 L 258.10421 1526.00154 L 1231.79708 1132.19121 C 1231.33 1128.25 1229.14 1124.84 1225.22766 1121.60398 C 1215.87 1113.85 1216.65 1104.29 1227.80704 1090.21295 C 1238.96 1076.13 1239.95 1067.22 1231.31916 1058.55063 C 1222.69 1049.88 1224.04 1040.16 1235.76025 1026.65093 C 1247.48 1013.14 1248.99 1004.11 1241.12557 994.54801 C 1233.26 984.99 1235.18 975.16 1247.40936 962.27624 C 1259.64 949.39 1261.67 940.27 1254.60489 929.87019 C 1247.54 919.47 1250.01 909.57 1262.70447 897.36454 C 1275.4 885.16 1277.93 875.99 1271.69941 864.79412 C 1265.47 853.59 1268.48 843.67 1281.58009 832.19379 C 1294.68 820.72 1297.71 811.55 1292.33592 799.59847 C 1286.96 787.65 1290.5 777.73 1303.9554 767.04306 C 1317.41 756.35 1320.92 747.21 1316.42606 734.56242 C 1311.93 721.91 1315.98 712.05 1329.73457 702.19134 C 1343.48 692.33 1347.46 683.26 1343.86667 669.96447 C 1340.27 656.67 1344.82 646.91 1358.80723 637.91633 C 1371.43 629.8 1376.26 621.71 1375.11946 610.01027 C 1374.95 609.23 1374.76 608.44 1374.52755 607.63232 L 1374.52755 606.01519 C 1373.63 601.34 1373.61 597.14 1374.52755 593.32666 L 1374.52755 590.11621 C 1376.67 584.89 1381.04 580.03 1387.91721 574.87138 C 1401.55 564.65 1405.39 554.68 1400.42704 542.39572 C 1395.47 530.11 1398.67 521.02 1411.91464 509.83257 C 1425.16 498.65 1428.36 488.64 1422.36232 477.23213 C 1416.36 465.82 1418.98 456.73 1431.75395 444.64468 C 1444.52 432.56 1447.08 422.58 1440.07507 412.12045 C 1433.07 401.66 1435.09 392.61 1447.31283 379.70961 C 1459.53 366.81 1461.42 356.91 1453.45607 347.46213 C 1445.49 338.01 1446.9 329.07 1458.49534 315.42772 C 1470.09 301.78 1471.3 292.03 1462.42284 283.65579 C 1453.55 275.28 1454.33 266.5 1465.23254 252.19533 C 1476.13 237.89 1476.65 228.35 1466.92009 221.09484 C 1457.19 213.84 1457.35 205.27 1467.4829 190.40227 C 1477.62 175.53 1477.44 166.25 1468.74154 161.32241 C 1477.62 175.53 1477.44 166.25 1466.92009 160.16497 C 1456.4 154.08 1455.92 145.78 1464.89657 158.88027 C 1456.4 154.08 1455.92 145.78 1465.23254 130.42954 C 1474.54 115.08 1473.68 106.12 1466.30686 103.37133 C 1474.54 115.08 1473.68 106.12 1462.42284 101.24184 C 1451.17 96.36 1450.07 88.38 1458.21556 98.94452 C 1451.17 96.36 1450.07 88.38 1458.49534 72.64687 C 1466.92 56.91 1465.37 48.33 1459.12929 47.31642 C 1466.92 56.91 1465.37 48.33 1453.45607 44.68872 C 1441.54 41.04 1439.82 33.43 1447.41241 41.9141 C 1441.54 41.04 1439.82 33.43 1447.31283 17.41052 C 1454.8 1.39 1452.58 -6.76 1447.35564 -6.37021 C 1454.8 1.39 1452.58 -6.76 1440.07507 -9.1457 C 1427.57 -11.53 1425.25 -18.73 1432.4094 -12.02388 C 1427.57 -11.53 1425.25 -18.73 1431.75395 -34.93897 C 1438.26 -51.15 1435.38 -58.82 1431.12052 -57.27709 C 1438.26 -51.15 1435.38 -58.82 1422.36232 -59.92952 C 1409.35 -61.04 1406.43 -67.78 1413.21976 -62.6329 C 1409.35 -61.04 1406.43 -67.78 1411.91464 -84.07883 C 1417.4 -100.37 1413.87 -107.51 1410.56426 -105.0364 C 1417.4 -100.37 1413.87 -107.51 1400.42704 -107.34965 C 1386.98 -107.18 1383.49 -113.43 1389.9137 -109.66171 C 1386.98 -107.18 1383.49 -113.43 1387.91721 -129.70611 C 1392.35 -145.99 1388.2 -152.56 1385.84148 -149.31596 C 1392.35 -145.99 1388.2 -152.56 1374.40446 -151.11372 C 1360.61 -149.67 1356.56 -155.37 1362.60297 -152.86109 C 1360.61 -149.67 1356.56 -155.37 1359.90961 -171.53949 C 1363.26 -187.71 1358.51 -193.67 1357.12537 -189.81547 C 1363.26 -187.71 1358.51 -193.67 1344.45502 -190.95192 C 1330.4 -188.24 1325.82 -193.37 1331.4328 -191.99338 C 1330.4 -188.24 1325.82 -193.37 1328.06451 -209.32107 C 1330.31 -225.28 1325 -230.58 1324.6097 -226.26487 C 1330.31 -225.28 1325 -230.58 1310.76337 -226.61862 C 1296.53 -222.65 1291.45 -227.17 1296.57683 -226.83832 C 1296.53 -222.65 1291.45 -227.17 1292.57826 -242.81791 C 1293.7 -258.46 1287.86 -263.09 1288.50959 -258.42375 C 1293.7 -258.46 1287.86 -263.09 1273.53723 -257.89394 C 1259.22 -252.7 1253.67 -256.59 1258.23353 -257.19709 C 1259.22 -252.7 1253.67 -256.59 1253.66964 -271.82348 C 1253.67 -287.06 1247.33 -290.98 1249.06169 -286.08141 C 1253.67 -287.06 1247.33 -290.98 1233.00611 -284.58504 C 1218.68 -278.19 1212.7 -281.43 1216.62312 -282.89534 C 1218.68 -278.19 1212.7 -281.43 1211.57852 -296.15896 C 1210.45 -310.89 1203.65 -314.07 1206.52387 -309.05703 C 1210.45 -310.89 1203.65 -314.07 1189.4199 -306.52737 C 1175.19 -298.98 1168.81 -301.53 1171.9846 -303.78546 C 1175.19 -298.98 1168.81 -301.53 1166.56442 -315.67431 C 1164.32 -329.82 1157.1 -332.24 1161.17489 -327.19999 C 1164.32 -329.82 1157.1 -332.24 1143.04733 -323.58565 C 1128.99 -314.93 1122.25 -316.79 1124.57252 -319.74864 C 1128.99 -314.93 1122.25 -316.79 1118.90487 -330.24921 C 1115.56 -343.71 1107.97 -345.37 1113.31406 -340.38998 C 1115.56 -343.71 1107.97 -345.37 1094.17429 -335.65471 C 1080.38 -325.94 1073.32 -327.1 1074.65315 -330.69672 C 1080.38 -325.94 1073.32 -327.1 1068.8937 -339.79381 C 1064.46 -352.49 1056.55 -353.37 1063.26131 -348.53692 C 1064.46 -352.49 1056.55 -353.37 1043.1021 -342.66013 C 1029.66 -331.95 1022.32 -332.39 1022.49942 -336.57417 C 1029.66 -331.95 1022.32 -332.39 1016.83925 -344.24925 C 1011.35 -356.11 1003.16 -356.2 1011.35797 -351.58039 C 1011.35 -356.11 1003.16 -356.2 990.14564 -344.55873 C 977.13 -332.92 969.57 -332.64 968.38372 -337.36087 C 977.13 -332.92 969.57 -332.64 963.06244 -343.58808 C 956.56 -354.53 948.14 -353.84 957.96896 -349.48827 C 956.56 -354.53 948.14 -353.84 935.63141 -341.3388 C 923.13 -328.84 915.38 -327.85 912.56624 -333.07645 C 923.13 -328.84 915.38 -327.85 907.89484 -337.81436 C 900.41 -347.78 891.81 -346.3 903.48785 -342.25408 C 900.41 -347.78 891.81 -346.3 879.8955 -333.02019 C 867.98 -319.74 860.1 -318.05 855.27393 -323.78902 C 867.98 -319.74 860.1 -318.05 851.67656 -326.96369 C 843.25 -335.88 834.54 -333.64 848.34727 -329.89159 C 843.25 -335.88 834.54 -333.64 823.28154 -319.65419 C 812.03 -305.67 804.06 -303.28 796.6564 -309.63529 C 812.03 -305.67 804.06 -303.28 794.75422 -311.10297 C 785.45 -318.92 776.66 -315.92 793.0409 -312.42381 C 785.45 -318.92 776.66 -315.92 766.13858 -301.32321 C 755.61 -286.72 747.61 -283.66 737.47875 -290.32999 C 727.34 -297 718.55 -293.26 708.81892 -278.14026 C 699.09 -263.02 691.1 -259.29 680.20329 -264.77282 C 669.3 -270.26 660.55 -265.8 651.67597 -250.24827 C 642.8 -234.69 634.88 -230.32 623.28095 -234.58902 C 611.69 -238.85 603.02 -233.71 595.06201 -217.81921 C 587.1 -201.93 579.28 -196.95 567.06267 -199.9647 C 554.84 -202.98 546.33 -197.18 539.3261 -181.05301 C 532.32 -164.93 524.67 -159.36 511.89507 -161.11332 C 499.12 -162.87 490.81 -156.44 484.81187 -140.17635 C 478.81 -123.91 471.36 -117.8 458.11826 -118.27441 C 444.88 -118.75 436.82 -111.74 431.85541 -95.44125 C 426.89 -79.14 419.69 -72.52 406.06381 -71.71208 C 392.43 -70.91 384.67 -63.36 380.78322 -47.12351 C 376.89 -30.89 369.99 -23.79 356.05263 -21.71342 C 342.12 -19.63 334.71 -11.59 331.91018 4.47898 C 329.11 20.55 322.55 28.07 308.39308 31.41332 C 294.24 34.76 287.22 43.24 285.5376 59.04806 C 283.85 74.86 277.67 82.76 263.37899 87.34059 C 249.09 91.92 242.51 100.8 241.95139 116.2473 C 241.39 131.7 235.62 139.93 221.28787 145.7236 C 206.96 151.52 200.86 160.73 201.42028 175.72404 C 201.98 190.72 196.67 199.23 182.37925 206.20238 C 168.09 213.18 162.51 222.66 164.19414 237.1116 C 165.88 251.56 161.05 260.3 146.89299 268.40406 C 132.74 276.51 127.71 286.22 130.50249 300.0315 C 133.3 313.84 128.98 322.75 115.0479 331.94515 C 101.11 341.14 96.66 351.01 100.55305 364.09581 C 104.44 377.19 100.67 386.21 87.0403 396.4339 C 73.41 406.66 69.57 416.62 74.53047 428.90956 C 79.49 441.2 76.28 450.29 63.04286 461.47272 C 49.8 472.66 46.59 482.66 52.59519 494.07315 C 58.6 505.48 55.97 514.58 43.20355 526.66061 C 30.43 538.74 27.88 548.72 34.88244 559.18483 C 41.89 569.65 39.87 578.69 27.64468 591.59567 C 15.42 604.5 13.54 614.4 21.50143 623.84316 C 29.46 633.29 28.06 642.23 16.46217 655.87756 C 4.87 669.52 3.66 679.27 12.53466 687.64949 C 21.41 696.03 20.62 704.81 9.72497 719.10996 C -1.17 733.41 -1.69 742.96 8.03741 750.21045 C 17.77 757.46 17.61 766.03 7.47461 780.90301 C -2.66 795.78 -2.49 805.06 6.21597 809.98287 C -2.66 795.78 -2.49 805.06 8.03741 811.14032 C 18.56 817.23 19.03 825.53 10.06094 812.42501 C 18.56 817.23 19.03 825.53 9.72497 840.87575 C 0.42 856.23 1.28 865.18 8.65064 867.93396 C 0.42 856.23 1.28 865.18 12.53466 870.06345 C 23.79 874.94 24.89 882.93 16.74194 872.36077 C 23.79 874.94 24.89 882.93 16.46217 898.65842 C 8.04 914.39 9.58 922.97 15.82821 923.98886 C 8.04 914.39 9.58 922.97 21.50143 926.61656 C 33.42 930.26 35.13 937.88 27.54509 929.39119 C 33.42 930.26 35.13 937.88 27.64468 953.89477 C 20.16 969.91 22.38 978.06 27.60187 977.67549 C 20.16 969.91 22.38 978.06 34.88244 980.45098 C 47.39 982.84 49.71 990.04 42.54811 983.32916 C 47.39 982.84 49.71 990.04 43.20355 1006.24425 C 36.7 1022.45 39.58 1030.12 43.83698 1028.58237 C 36.7 1022.45 39.58 1030.12 52.59519 1031.2348 C 65.61 1032.35 68.53 1039.09 61.73774 1033.93819 C 65.61 1032.35 68.53 1039.09 63.04286 1055.38411 C 57.56 1071.68 61.08 1078.82 64.39325 1076.34168 C 57.56 1071.68 61.08 1078.82 74.53047 1078.65493 C 87.98 1078.49 91.47 1084.73 85.04381 1080.96699 C 87.98 1078.49 91.47 1084.73 87.0403 1101.01139 C 83.65 1113.46 85.28 1120.24 89.11602 1120.62124 C 83.65 1113.46 85.28 1120.24 92.40719 1122.08576 C 94.63 1122.27 97.29 1122.03 100.41726 1121.40061 C 114.5 1118.55 119.29 1124.37 113.24432 1122.45178 C 114.5 1118.55 119.29 1124.37 116.15028 1140.50926 C 113.01 1156.64 117.22 1162.26 118.98017 1158.89833 C 113.01 1156.64 117.22 1162.26 131.09083 1160.47198 C 144.97 1158.68 149.27 1165.01 142.90065 1162.09819 C 144.97 1158.68 149.27 1165.01 145.22293 1181.26738 C 141.18 1197.52 144.92 1203.6 147.47377 1200.78734 C 141.18 1197.52 144.92 1203.6 158.53144 1202.87321 C 172.14 1202.15 175.94 1208.97 169.27974 1204.9785 C 172.14 1202.15 175.94 1208.97 171.00211 1225.26632 C 166.06 1241.57 169.33 1248.08 172.66898 1245.9346 C 166.06 1241.57 169.33 1248.08 182.62158 1248.42273 C 195.91 1248.76 199.18 1256.04 192.25755 1250.8949 C 195.91 1248.76 199.18 1256.04 193.37742 1272.31765 C 187.57 1288.6 190.35 1295.52 194.47309 1294.16613 C 187.57 1288.6 190.35 1295.52 203.2581 1296.92549 C 216.17 1298.33 218.9 1306.03 211.72192 1299.63239 C 216.17 1298.33 218.9 1306.03 212.25304 1322.2199 C 205.6 1338.41 207.88 1345.71 212.81314 1345.30158 C 205.6 1338.41 207.88 1345.71 220.35262 1348.17379 C 232.82 1350.64 235.02 1358.73 227.57142 1350.95789 C 232.82 1350.64 235.02 1358.73 227.54815 1374.75937 C 220.08 1390.78 221.85 1398.44 227.63961 1399.15871 C 220.08 1390.78 221.85 1398.44 233.83194 1401.94818 C 245.81 1405.46 247.45 1413.92 239.7133 1404.61848 C 245.81 1405.46 247.45 1413.92 239.19725 1429.7111 C 230.95 1445.51 232.2 1453.47 238.93288 1455.56053 C 230.95 1445.51 232.2 1453.47 243.63835 1458.0184 C 255.08 1462.56 256.15 1471.34 248.05962 1460.33791 C 255.08 1462.56 256.15 1471.34 247.15046 1486.83976 C 238.15 1502.34 238.88 1510.58 246.71536 1514.34797 C 238.15 1502.34 238.88 1510.58 249.72985 1516.14433 C 254.61 1518.64 257.4 1521.85 252.52017 1517.80999 C 254.61 1518.64 257.4 1521.85 258.10421 1526.00154" />
    <path d="M -1219.39591 486.69056 C -1220.35 484.79 -1217.56 487.99 -1216.85329 492.14344" />
    <path d="M -225.89582 -1319.93951 C -221.29 -1320.92 -227.63 -1324.83 -236.45778 -1320.50195" />
    <path d="M -268.43364 -1342.91513 C -264.5 -1344.75 -271.3 -1347.93 -284.82257 -1340.75881" />
    <path d="M -313.78262 -1361.05809 C -310.64 -1363.67 -317.85 -1366.1 -331.91018 -1357.44375 C -345.97 -1348.79 -352.71 -1350.65 -335.05995 -1355.61462" />
    <path d="M -361.64344 -1374.24808 C -359.4 -1377.57 -366.99 -1379.23 -380.78322 -1369.51281 C -394.58 -1359.8 -401.63 -1360.95 -387.45331 -1365.40219" />
    <path d="M -411.69619 -1382.39502 C -410.49 -1386.35 -418.41 -1387.23 -431.85541 -1376.51823 C -445.3 -1365.81 -452.63 -1366.25 -441.79473 -1370.1546" />
    <path d="M -463.59954 -1385.43849 C -463.6 -1389.96 -471.8 -1390.06 -484.81187 -1378.41683 C -497.83 -1366.77 -505.39 -1366.5 -497.88207 -1369.95386" />
    <path d="M -516.98855 -1383.34637 C -518.4 -1388.39 -526.82 -1387.7 -539.3261 -1375.1969 C -551.83 -1362.69 -559.57 -1361.71 -555.55975 -1364.96028" />
    <path d="M -571.46965 -1376.11218 C -574.55 -1381.63 -583.14 -1380.16 -595.06201 -1366.87829 C -606.98 -1353.59 -614.86 -1351.9 -614.78236 -1355.45904" />
    <path d="M -626.61024 -1363.74969 C -631.71 -1369.74 -640.42 -1367.5 -651.67597 -1353.51229 C -662.93 -1339.53 -670.89 -1337.14 -675.76322 -1341.96875" />
    <path d="M -680.20329 -1344.96107 C -689.51 -1352.78 -698.29 -1349.78 -681.91661 -1346.28191 C -689.51 -1352.78 -698.29 -1349.78 -708.81892 -1335.18131 C -719.34 -1320.58 -727.34 -1317.51 -737.47875 -1324.18809 C -747.61 -1330.86 -756.41 -1327.12 -766.13858 -1311.99836 C -775.87 -1296.88 -783.86 -1293.14 -794.75422 -1298.63092 C -805.65 -1304.12 -814.41 -1299.66 -823.28154 -1284.10637 C -832.15 -1268.55 -840.08 -1264.18 -851.67656 -1268.44712 C -863.27 -1272.71 -871.93 -1267.57 -879.8955 -1251.67731 C -887.86 -1235.79 -895.67 -1230.8 -907.89484 -1233.8228 C -920.12 -1236.84 -928.63 -1231.04 -935.63141 -1214.91111 C -942.63 -1198.79 -950.29 -1193.22 -963.06244 -1194.97142 C -975.83 -1196.72 -984.15 -1190.3 -990.14564 -1174.03445 C -996.15 -1157.77 -1003.6 -1151.66 -1016.83925 -1152.13251 C -1030.08 -1152.61 -1038.14 -1145.6 -1043.1021 -1129.29935 C -1048.06 -1113 -1055.26 -1106.38 -1068.8937 -1105.57019 C -1082.52 -1104.77 -1090.28 -1097.22 -1094.17429 -1080.98161 C -1098.06 -1064.74 -1104.97 -1057.65 -1118.90487 -1055.57153 C -1132.84 -1053.49 -1140.25 -1045.45 -1143.04733 -1029.37912 C -1145.84 -1013.31 -1152.41 -1005.79 -1166.56442 -1002.44478 C -1180.72 -999.1 -1187.74 -990.62 -1189.4199 -974.81004 C -1191.1 -959 -1197.29 -951.1 -1211.57852 -946.51751 C -1225.87 -941.93 -1232.44 -933.06 -1233.00611 -917.6108 C -1233.57 -902.16 -1239.34 -893.93 -1253.66964 -888.1345 C -1268 -882.34 -1274.1 -873.13 -1273.53723 -858.13406 C -1272.97 -843.14 -1278.29 -834.63 -1292.57826 -827.65572 C -1306.87 -820.68 -1312.45 -811.19 -1310.76337 -796.7465 C -1309.08 -782.3 -1313.91 -773.56 -1328.06451 -765.45404 C -1342.22 -757.35 -1347.25 -747.64 -1344.45502 -733.8266 C -1341.66 -720.01 -1345.97 -711.11 -1359.90961 -701.91295 C -1373.85 -692.72 -1378.29 -682.85 -1374.40446 -669.76229 C -1370.51 -656.67 -1374.29 -647.65 -1387.91721 -637.4242 C -1401.55 -627.2 -1405.39 -617.24 -1400.42704 -604.94854 C -1395.47 -592.66 -1398.67 -583.57 -1411.91464 -572.38538 C -1425.16 -561.2 -1428.36 -551.19 -1422.36232 -539.78495 C -1416.36 -528.38 -1418.98 -519.28 -1431.75395 -507.19749 C -1444.52 -495.12 -1447.08 -485.13 -1440.07507 -474.67327 C -1433.07 -464.21 -1435.09 -455.17 -1447.31283 -442.26243 C -1459.53 -429.36 -1461.42 -419.46 -1453.45607 -410.01495 C -1445.49 -400.57 -1446.9 -391.63 -1458.49534 -377.98054 C -1470.09 -364.34 -1471.3 -354.58 -1462.42284 -346.20861 C -1453.55 -337.83 -1454.33 -329.05 -1465.23254 -314.74815 C -1476.13 -300.45 -1476.65 -290.9 -1466.92009 -283.64765 C -1457.19 -276.39 -1457.35 -267.83 -1467.4829 -252.95509 C -1477.62 -238.08 -1477.44 -228.8 -1468.74154 -223.87523 L 6.21597 809.98287" />
    <path d="M -1462.60217 -219.5719 C -1456.4 -216.63 -1455.92 -208.33 -1465.23254 -192.98235 C -1474.54 -177.63 -1473.68 -168.67 -1466.30686 -165.92414 L 8.65064 867.93396" />
    <path d="M -1454.48863 -157.64026 C -1451.17 -158.91 -1450.07 -150.93 -1458.49534 -135.19968 C -1466.92 -119.47 -1465.37 -110.89 -1459.12929 -109.86924 L 15.82821 923.98886" />
    <path d="M -1443.22666 -98.72243 C -1441.54 -103.6 -1439.82 -95.98 -1447.31283 -79.96333 C -1454.8 -63.94 -1452.58 -55.79 -1447.35564 -56.18261 L 27.60187 977.67549" />
    <path d="M -1428.25509 -42.79425 C -1427.57 -51.02 -1425.25 -43.82 -1431.75395 -27.61385 C -1438.26 -11.41 -1435.38 -3.74 -1431.12052 -5.27573 L 43.83698 1028.58237" />
    <path d="M -1409.32089 10.00452 C -1409.35 -1.51 -1406.43 5.23 -1411.91464 21.52601 C -1417.4 37.82 -1413.87 44.96 -1410.56426 42.48358 L 64.39325 1076.34168" />
    <path d="M -1386.32621 59.47302 C -1386.98 44.63 -1383.49 50.87 -1387.91721 67.15329 C -1391.3 79.61 -1389.68 86.38 -1385.84148 86.76314 L 89.11602 1120.62124" />
    <path d="M -1358.65125 105.82189 C -1360.46 84.7 -1355.67 90.52 -1358.80723 106.65116 C -1361.95 122.79 -1357.74 128.4 -1355.97734 125.04023 L 118.98017 1158.89833" />
    <path d="M -1328.97464 143.96752 C -1329.99 124.82 -1325.69 131.16 -1329.73457 147.40928 C -1333.78 163.66 -1330.04 169.74 -1327.48373 166.92923 L 147.47377 1200.78734" />
    <path d="M -1302.30521 184.57789 C -1302.82 168.29 -1299.02 175.11 -1303.9554 191.40821 C -1308.89 207.71 -1305.62 214.22 -1302.28853 212.0765 L 172.66898 1245.9346" />
    <path d="M -1278.99749 228.40215 C -1279.05 214.9 -1275.77 222.18 -1281.58009 238.45955 C -1287.39 254.74 -1284.61 261.66 -1280.48442 260.30803 L 194.47309 1294.16613" />
    <path d="M -1259.22246 275.2114 C -1258.79 264.47 -1256.05 272.18 -1262.70447 288.3618 C -1269.36 304.55 -1267.08 311.85 -1262.14437 311.44348 L 212.81314 1345.30158" />
    <path d="M -1243.15643 324.7529 C -1242.13 316.78 -1239.94 324.88 -1247.40936 340.90127 C -1254.88 356.93 -1253.11 364.58 -1247.3179 365.30061 L 227.63961 1399.15871" />
    <path d="M -1230.99361 376.74297 C -1229.14 371.6 -1227.51 380.06 -1235.76025 395.853 C -1244.01 411.65 -1242.76 419.61 -1236.02463 421.70243 L 238.93288 1455.56053" />
    <path d="M -1222.96826 430.85417 C -1219.88 428.71 -1218.81 437.48 -1227.80704 452.98166 C -1236.81 468.48 -1236.08 476.73 -1228.24215 480.48987 L 246.71536 1514.34797" />
    <path d="M -1227.80704 452.98166 L 247.15046 1486.83976" />
    <path d="M 1463.17373 157.53899 L 1466.92009 160.16497" />
    <path d="M 1455.28659 96.23975 L 1462.42284 101.24184" />
    <path d="M 1443.93022 38.01166 L 1453.45607 44.68872" />
    <path d="M 1428.70652 -17.11437 L 1440.07507 -9.1457" />
    <path d="M 1409.45578 -68.97624 L 1422.36232 -59.92952" />
    <path d="M 1386.14168 -117.36284 L 1400.42704 -107.34965" />
    <path d="M 1358.80206 -162.05008 L 1374.40446 -151.11372" />
    <path d="M 1327.5243 -202.81935 L 1344.45502 -190.95192" />
    <path d="M 1292.43093 -239.46858 L 1310.76337 -226.61862" />
    <path d="M 1253.66964 -271.81995 L 1273.53723 -257.89394" />
    <path d="M 1211.12437 -299.92285 L 1233.00611 -284.58504" />
    <path d="M 1163.58794 -324.63406 L 1189.4199 -306.52737" />
    <path d="M -331.91018 -1357.44375 L 1143.04733 -323.58565" />
    <path d="M -380.78322 -1369.51281 L 1094.17429 -335.65471" />
    <path d="M -431.85541 -1376.51823 L 1043.1021 -342.66013" />
    <path d="M -484.81187 -1378.41683 L 990.14564 -344.55873" />
    <path d="M -539.3261 -1375.1969 L 935.63141 -341.3388" />
    <path d="M -595.06201 -1366.87829 L 879.8955 -333.02019" />
    <path d="M -651.67597 -1353.51229 L 823.28154 -319.65419" />
    <path d="M -708.81892 -1335.18131 L 766.13858 -301.32321" />
    <path d="M -737.47875 -1324.18809 L 737.47875 -290.32999" />
    <path d="M -766.13858 -1311.99836 L 708.81892 -278.14026" />
    <path d="M -794.75422 -1298.63092 L 680.20329 -264.77282" />
    <path d="M -823.28154 -1284.10637 L 651.67597 -250.24827" />
    <path d="M -851.67656 -1268.44712 L 623.28095 -234.58902" />
    <path d="M -879.8955 -1251.67731 L 595.06201 -217.81921" />
    <path d="M -907.89484 -1233.8228 L 567.06267 -199.9647" />
    <path d="M -935.63141 -1214.91111 L 539.3261 -181.05301" />
    <path d="M -963.06244 -1194.97142 L 511.89507 -161.11332" />
    <path d="M -990.14564 -1174.03445 L 484.81187 -140.17635" />
    <path d="M -1016.83925 -1152.13251 L 458.11826 -118.27441" />
    <path d="M -1043.1021 -1129.29935 L 431.85541 -95.44125" />
    <path d="M -1068.8937 -1105.57019 L 406.06381 -71.71208" />
    <path d="M -1094.17429 -1080.98161 L 380.78322 -47.12351" />
    <path d="M -1118.90487 -1055.57153 L 356.05263 -21.71342" />
    <path d="M -1143.04733 -1029.37912 L 331.91018 4.47898" />
    <path d="M -1166.56442 -1002.44478 L 308.39308 31.41332" />
    <path d="M -1189.4199 -974.81004 L 285.5376 59.04806" />
    <path d="M -1211.57852 -946.51751 L 263.37899 87.34059" />
    <path d="M -1233.00611 -917.6108 L 241.95139 116.2473" />
    <path d="M -1253.66964 -888.1345 L 221.28787 145.7236" />
    <path d="M -1273.53723 -858.13406 L 201.42028 175.72404" />
    <path d="M -1292.57826 -827.65572 L 182.37925 206.20238" />
    <path d="M -1310.76337 -796.7465 L 164.19414 237.1116" />
    <path d="M -1328.06451 -765.45404 L 146.89299 268.40406" />
    <path d="M -1344.45502 -733.8266 L 130.50249 300.0315" />
    <path d="M -1359.90961 -701.91295 L 115.0479 331.94515" />
    <path d="M -1374.40446 -669.76229 L 100.55305 364.09581" />
    <path d="M -1387.91721 -637.4242 L 87.0403 396.4339" />
    <path d="M -1400.42704 -604.94854 L 74.53047 428.90956" />
    <path d="M -1411.91464 -572.38538 L 63.04286 461.47272" />
    <path d="M -1422.36232 -539.78495 L 52.59519 494.07315" />
    <path d="M -1431.75395 -507.19749 L 43.20355 526.66061" />
    <path d="M -1440.07507 -474.67327 L 34.88244 559.18483" />
    <path d="M -1447.31283 -442.26243 L 27.64468 591.59567" />
    <path d="M -1453.45607 -410.01495 L 21.50143 623.84316" />
    <path d="M -1458.49534 -377.98054 L 16.46217 655.87756" />
    <path d="M -1462.42284 -346.20861 L 12.53466 687.64949" />
    <path d="M -1465.23254 -314.74815 L 9.72497 719.10996" />
    <path d="M -1466.92009 -283.64765 L 8.03741 750.21045" />
    <path d="M -1467.4829 -252.95509 L 7.47461 780.90301" />
    <path d="M -1465.23254 -192.98235 L 9.72497 840.87575" />
    <path d="M -1458.49534 -135.19968 L 16.46217 898.65842" />
    <path d="M -1447.31283 -79.96333 L 27.64468 953.89477" />
    <path d="M -1431.75395 -27.61385 L 43.20355 1006.24425" />
    <path d="M -1411.91464 21.52601 L 63.04286 1055.38411" />
    <path d="M -1387.91721 67.15329 L 87.0403 1101.01139" />
    <path d="M -1358.80723 106.65116 L 116.15028 1140.50926" />
    <path d="M -1329.73457 147.40928 L 145.22293 1181.26738" />
    <path d="M -1303.9554 191.40821 L 171.00211 1225.26632" />
    <path d="M -1281.58009 238.45955 L 193.37742 1272.31765" />
    <path d="M -1262.70447 288.3618 L 212.25304 1322.2199" />
    <path d="M -1247.40936 340.90127 L 227.54815 1374.75937" />
    <path d="M -1235.76025 395.853 L 239.19725 1429.7111" />
    <path d="M 1462.60217 157.01908 L 1468.74154 161.32241" />
    <path d="M 1454.48863 95.08744 L 1466.30686 103.37133" />
    <path d="M 1443.22666 36.16961 L 1459.12929 47.31642" />
    <path d="M 1428.25509 -19.75857 L 1447.35564 -6.37021" />
    <path d="M 1409.32089 -72.55734 L 1431.12052 -57.27709" />
    <path d="M 1386.32621 -122.02584 L 1410.56426 -105.0364" />
    <path d="M 1359.26276 -167.94607 L 1385.84148 -149.31596" />
    <path d="M 1328.17047 -210.11115 L 1357.12537 -189.81547" />
    <path d="M 1292.64141 -248.67275 L 1324.6097 -226.26487" />
    <path d="M 1249.29527 -285.91068 L 1288.50959 -258.42375" />
    <path d="M -225.89582 -1319.93951 L 1249.06169 -286.08141" />
    <path d="M -268.43364 -1342.91513 L 1206.52387 -309.05703" />
    <path d="M -313.78262 -1361.05809 L 1161.17489 -327.19999" />
    <path d="M -361.64344 -1374.24808 L 1113.31406 -340.38998" />
    <path d="M -411.69619 -1382.39502 L 1063.26131 -348.53692" />
    <path d="M -463.59954 -1385.43849 L 1011.35797 -351.58039" />
    <path d="M -516.98855 -1383.34637 L 957.96896 -349.48827" />
    <path d="M -571.46965 -1376.11218 L 903.48785 -342.25408" />
    <path d="M -626.61024 -1363.74969 L 848.34727 -329.89159" />
    <path d="M -681.91661 -1346.28191 L 793.0409 -312.42381" />
</svg>