<svg version="1.1" xmlns="http://www.w3.org/2000/svg" viewBox="-1102.5684430886902 -86.68028204531036 2047.5503321826427 179.6869245449535" fill="none" stroke="black" stroke-width="0.6%" vector-effect="non-scaling-stroke">
    <path d="M -1101.56844 60.21815 L -220.79796 92.00664" />
    <path d="M -220.79796 -7.92197 L -220.79796 92.00664" />
    <path d="M -1101.56844 -39.71046 L -220.79796 -7.92197 A 1102.5 41.65252 360 0 1 304.72084 -18.18907 L 304.72084 81.73954 A 1102.5 41.65252 180 0 0 -220.79796 92.00664" />
    <path d="M -1101.56844 -39.71046 L -1101.56844 60.21815" />
    <path d="M 943.98189 48.79442 A 914.4 34.54609 0 0 1 304.72084 81.73954" />
    <path d="M 304.72084 -18.18907 A 914.4 34.54609 180 0 0 943.98189 -51.13419 L 943.98189 48.79442" />
    <path d="M 943.98189 -51.13419 A 914.4 34.54609 180 0 0 -854.1019 -60.01293 A 1102.5 41.65252 360 0 1 -1101.56844 -39.71046" />
</svg>