<svg version="1.1" xmlns="http://www.w3.org/2000/svg" viewBox="-1102.4500519939986 -1545.7723567156804 2054.6490871341475 3205.3081271825345" fill="none" stroke="black" stroke-width="0.6%" vector-effect="non-scaling-stroke">
    <path d="M -1101.45005 1087.24711 L -1101.45005 -713.96421 L -220.09107 -142.67555 C -217.13 -145.32 -215.6 -149.07 -215.19222 -154.1319 C -214.22 -166.25 -205.94 -171.09 -188.00655 -170.03753 C -170.08 -168.98 -162.21 -173.29 -160.06335 -185.33507 C -157.92 -197.38 -149.18 -201.85 -131.39255 -200.00817 C -113.6 -198.17 -105.34 -202.12 -102.02486 -214.04109 C -98.71 -225.97 -89.57 -230.04 -71.99172 -227.41881 C -54.42 -224.8 -45.79 -228.37 -41.32529 -240.12701 C -36.86 -251.88 -27.34 -255.54 -10.05841 -252.15208 C 7.22 -248.76 16.18 -251.95 21.77544 -263.48115 C 27.37 -275.01 37.23 -278.25 54.14216 -274.10207 C 71.06 -269.96 80.31 -272.74 87.00711 -284.00348 C 93.71 -295.26 103.86 -298.06 120.33509 -293.17478 C 136.81 -288.29 146.31 -290.67 154.09041 -301.60614 C 161.87 -312.55 172.27 -314.89 188.23692 -309.28854 C 204.21 -303.69 213.91 -305.64 222.73806 -316.21375 C 231.56 -326.79 242.17 -328.66 257.55689 -322.37435 C 271.45 -316.7 280.84 -317.38 289.7712 -325.03427 C 290.32 -325.62 290.85 -326.23 291.37868 -326.88385 L 292.70291 -327.81206 C 296.02 -331.23 299.44 -333.65 303.09316 -335.09501 L 305.7221 -336.93774 C 311.23 -338.19 317.72 -337.4 325.89102 -334.72357 C 342.08 -329.43 352.45 -332.01 359.66474 -343.12001 C 366.88 -354.23 376.16 -356.83 392.92337 -352.40373 C 409.68 -347.98 419.72 -351.1 425.61563 -362.56042 C 431.51 -374.02 440.47 -377.1 457.69112 -373.57442 C 474.91 -370.05 484.55 -373.69 489.10037 -385.42875 C 493.65 -397.17 502.21 -400.71 519.79495 -398.10512 C 537.38 -395.5 546.56 -399.64 549.72754 -411.58399 C 552.89 -423.53 561.02 -427.51 578.85198 -425.84457 C 596.68 -424.18 605.36 -428.79 607.12336 -440.86489 C 608.89 -452.94 616.53 -457.34 634.49809 -456.62177 C 652.47 -455.91 660.58 -460.96 660.93396 -473.09093 C 661.29 -485.22 668.39 -490.01 686.39021 -490.24696 C 704.39 -490.48 711.89 -495.95 710.92526 -505.90754 C 704.39 -490.48 711.89 -495.95 710.82759 -508.06341 C 709.77 -520.17 716.3 -525.32 710.71813 -510.4578 C 709.77 -520.17 716.3 -525.32 734.20841 -526.51282 C 752.12 -527.7 758.96 -533.55 756.98221 -541.16394 C 752.12 -527.7 758.96 -533.55 756.49663 -545.56673 C 754.03 -557.58 759.94 -563.06 755.96294 -550.33056 C 754.03 -557.58 759.94 -563.06 777.65788 -565.19577 C 795.38 -567.33 801.52 -573.52 798.7641 -579.2158 C 795.38 -567.33 801.52 -573.52 797.65953 -585.36967 C 793.8 -597.22 799.05 -602.99 796.46265 -591.91122 C 793.8 -597.22 799.05 -602.99 816.47073 -606.05732 C 833.89 -609.12 839.29 -615.62 835.96862 -619.6719 C 833.89 -609.12 839.29 -615.62 834.06248 -627.22682 C 828.84 -638.84 833.4 -644.87 832.0194 -635.15601 C 828.84 -638.84 833.4 -644.87 850.40766 -648.84553 C 867.41 -652.82 872.04 -659.58 868.3361 -662.18585 C 867.41 -652.82 872.04 -659.58 865.48107 -670.88012 C 858.92 -682.18 862.77 -688.44 862.44715 -679.91837 C 858.92 -682.18 862.77 -688.44 879.25946 -693.29661 C 895.75 -698.16 899.58 -705.14 895.64589 -706.4316 C 895.75 -698.16 899.58 -705.14 891.72158 -716.06043 C 883.87 -726.98 886.97 -733.42 887.58042 -725.99656 C 883.87 -726.98 886.97 -733.42 902.84823 -739.13649 C 918.72 -744.85 921.72 -752.02 917.71472 -752.09189 C 918.72 -744.85 921.72 -752.02 912.62223 -762.48921 C 903.52 -772.96 905.87 -779.54 907.27929 -773.15604 C 903.52 -772.96 905.87 -779.54 921.02854 -786.08257 C 936.19 -792.62 938.34 -799.93 934.39609 -798.85253 C 936.19 -792.62 938.34 -799.93 928.05417 -809.8802 C 917.76 -819.83 919.34 -826.52 921.4325 -821.14148 C 917.76 -819.83 919.34 -826.52 933.6883 -833.8454 C 948.04 -841.17 949.34 -848.56 945.58008 -846.39984 C 948.04 -841.17 949.34 -848.56 937.92225 -857.94123 C 926.51 -867.32 927.29 -874.07 929.95936 -869.68426 C 926.51 -867.32 927.29 -874.07 940.74947 -882.13052 C 954.2 -890.19 954.64 -897.63 951.1933 -894.41966 C 954.2 -890.19 954.64 -897.63 942.16562 -906.37597 C 929.69 -915.12 929.69 -921.9 932.81099 -918.50774 C 929.69 -915.12 929.69 -921.9 942.16851 -930.64021 C 954.64 -939.39 954.21 -946.83 951.19903 -942.59728 C 954.64 -939.39 954.21 -946.83 940.75813 -954.88582 C 927.3 -962.95 926.52 -969.7 929.97099 -967.3315 C 927.3 -962.95 926.52 -969.7 937.93667 -979.07542 C 949.36 -988.45 948.06 -995.85 945.59725 -990.61775 C 949.36 -988.45 948.06 -995.85 933.70846 -1003.1717 C 919.36 -1010.49 917.79 -1017.18 921.45569 -1015.87514 C 919.36 -1010.49 917.79 -1017.18 928.08004 -1027.13751 C 938.37 -1037.09 936.22 -1044.39 934.42459 -1038.16634 C 938.37 -1037.09 936.22 -1044.39 921.06007 -1050.9359 C 905.9 -1057.48 903.56 -1064.06 907.3139 -1063.86199 C 905.9 -1057.48 903.56 -1064.06 912.65939 -1074.53017 C 921.76 -1085 918.76 -1092.16 917.75435 -1084.9289 C 921.76 -1085 918.76 -1092.16 902.89094 -1097.88394 C 887.02 -1103.6 883.91 -1110.05 887.62626 -1111.02343 C 887.02 -1103.6 883.91 -1110.05 891.76979 -1120.96121 C 899.63 -1131.88 895.8 -1138.86 895.69639 -1130.59176 C 899.63 -1131.88 895.8 -1138.86 879.31309 -1143.72638 C 862.82 -1148.59 858.98 -1154.85 862.50397 -1157.10408 C 862.82 -1148.59 858.98 -1154.85 865.54004 -1166.14436 C 872.1 -1177.44 867.48 -1184.2 868.39714 -1174.84073 C 872.1 -1177.44 867.48 -1184.2 850.47188 -1188.18058 C 833.47 -1192.16 828.91 -1198.19 832.08688 -1201.86934 C 833.47 -1192.16 828.91 -1198.19 834.13185 -1209.80106 C 839.36 -1221.41 833.96 -1227.91 836.03978 -1217.35854 C 839.36 -1221.41 833.96 -1227.91 816.54513 -1230.97246 C 799.13 -1234.04 793.88 -1239.81 796.54042 -1245.11741 C 799.13 -1234.04 793.88 -1239.81 797.73885 -1251.66215 C 801.6 -1263.51 795.46 -1269.7 798.84489 -1257.8192 C 801.6 -1263.51 795.46 -1269.7 777.74201 -1271.83821 C 760.02 -1273.97 754.12 -1279.45 756.05062 -1286.70156 C 760.02 -1273.97 754.12 -1279.45 756.58544 -1291.46953 C 759.05 -1303.49 752.21 -1309.34 757.07206 -1295.87634 C 759.05 -1303.49 752.21 -1309.34 734.30176 -1310.52586 C 716.39 -1311.72 709.86 -1316.87 710.8153 -1326.57774 C 716.39 -1311.72 709.86 -1316.87 710.92533 -1328.97779 C 711.99 -1341.09 704.49 -1346.56 711.02352 -1331.13891 C 711.99 -1341.09 704.49 -1346.56 686.49219 -1346.79689 C 668.5 -1347.04 661.39 -1351.83 661.04003 -1363.95568 C 660.69 -1376.09 652.58 -1381.14 634.60808 -1380.42769 C 616.64 -1379.71 609 -1384.11 607.2371 -1396.18754 C 605.47 -1408.26 596.8 -1412.87 578.96929 -1411.21091 C 561.14 -1409.55 553.01 -1413.53 549.84825 -1425.47465 C 546.69 -1437.42 537.5 -1441.56 519.91887 -1438.95676 C 502.34 -1436.36 493.77 -1439.9 489.22731 -1451.63645 C 484.68 -1463.38 475.05 -1467.02 457.82088 -1463.49417 C 440.6 -1459.97 431.64 -1463.05 425.74802 -1474.51164 C 419.85 -1485.97 409.82 -1489.09 393.05818 -1484.67187 C 376.3 -1480.25 367.01 -1482.84 359.80176 -1493.95919 C 352.59 -1505.07 342.23 -1507.65 326.03004 -1502.35928 C 309.83 -1497.07 300.28 -1499.16 291.7951 -1509.8592 C 283.31 -1520.56 272.68 -1522.58 257.14972 -1516.44737 C 241.62 -1510.31 231.85 -1511.9 222.14733 -1522.11364 C 212.44 -1532.33 201.61 -1533.79 186.84189 -1526.84926 C 172.07 -1519.91 162.15 -1520.97 151.28785 -1530.64695 C 140.43 -1540.32 129.45 -1541.2 115.54002 -1533.50084 C 101.63 -1525.81 91.61 -1526.34 79.65353 -1535.40653 C 67.7 -1544.48 56.66 -1544.77 43.68371 -1536.36109 C 30.71 -1527.95 20.66 -1527.95 7.68602 -1536.36303 C -5.29 -1544.77 -16.33 -1544.48 -28.28403 -1535.41237 C -40.24 -1526.34 -50.26 -1525.81 -64.17097 -1533.51056 C -78.08 -1541.21 -89.06 -1540.33 -99.91948 -1530.66054 C -110.78 -1520.99 -120.71 -1519.93 -135.47443 -1526.8667 C -150.24 -1533.8 -161.08 -1532.35 -170.78099 -1522.13489 C -180.49 -1511.92 -190.26 -1510.34 -205.78473 -1516.47241 C -221.31 -1522.61 -231.95 -1520.59 -240.43168 -1509.88799 C -248.92 -1499.19 -258.47 -1497.1 -274.66841 -1502.39178 C -290.86 -1507.69 -301.23 -1505.11 -308.44213 -1493.99534 C -315.66 -1482.88 -324.94 -1480.29 -341.70076 -1484.71161 C -358.46 -1489.13 -368.49 -1486.02 -374.39302 -1474.55492 C -380.29 -1463.09 -389.25 -1460.02 -406.46851 -1463.54092 C -423.69 -1467.06 -433.33 -1463.43 -437.87775 -1451.6866 C -442.42 -1439.95 -450.99 -1436.41 -468.57234 -1439.01023 C -486.15 -1441.61 -495.34 -1437.47 -498.50493 -1425.53136 C -501.67 -1413.59 -509.8 -1409.61 -527.62936 -1411.27077 C -545.46 -1412.93 -554.14 -1408.32 -555.90075 -1396.25046 C -557.67 -1384.18 -565.31 -1379.78 -583.27548 -1380.49357 C -601.24 -1381.21 -609.36 -1376.15 -609.71135 -1364.02442 C -610.07 -1351.89 -617.17 -1347.11 -635.1676 -1346.86839 C -653.16 -1346.63 -660.66 -1341.16 -659.70265 -1331.20781 C -653.16 -1346.63 -660.66 -1341.16 -659.60498 -1329.05193 C -658.55 -1316.94 -665.07 -1311.79 -659.49552 -1326.65754 C -658.55 -1316.94 -665.07 -1311.79 -682.9858 -1310.60252 C -700.9 -1309.41 -707.74 -1303.57 -705.75959 -1295.9514 C -700.9 -1309.41 -707.74 -1303.57 -705.27402 -1291.54861 C -702.81 -1279.53 -708.72 -1274.05 -704.74033 -1286.78478 C -702.81 -1279.53 -708.72 -1274.05 -726.43527 -1271.91957 C -744.15 -1269.79 -750.29 -1263.6 -747.54148 -1257.89955 C -744.15 -1269.79 -750.29 -1263.6 -746.43691 -1251.74568 C -742.58 -1239.9 -747.83 -1234.12 -745.24004 -1245.20413 C -742.58 -1239.9 -747.83 -1234.12 -765.24812 -1231.05803 C -782.66 -1228 -788.06 -1221.5 -784.74601 -1217.44344 C -782.66 -1228 -788.06 -1221.5 -782.83987 -1209.88853 C -777.62 -1198.28 -782.18 -1192.24 -780.79679 -1201.95933 C -777.62 -1198.28 -782.18 -1192.24 -799.18505 -1188.26982 C -816.19 -1184.3 -820.82 -1177.53 -817.11349 -1174.9295 C -816.19 -1184.3 -820.82 -1177.53 -814.25846 -1166.23523 C -807.7 -1154.94 -811.55 -1148.68 -811.22454 -1157.19698 C -807.7 -1154.94 -811.55 -1148.68 -828.03685 -1143.81874 C -844.53 -1138.96 -848.35 -1131.97 -844.42328 -1130.68374 C -844.53 -1138.96 -848.35 -1131.97 -840.49897 -1121.05491 C -832.65 -1110.14 -835.75 -1103.7 -836.3578 -1111.11879 C -832.65 -1110.14 -835.75 -1103.7 -851.62561 -1097.97885 C -863.77 -1093.61 -868.38 -1088.38 -866.49211 -1085.02345 C -863.77 -1093.61 -868.38 -1088.38 -865.80229 -1081.48781 C -864.68 -1079.56 -862.96 -1077.52 -860.64363 -1075.32187 C -850.23 -1065.43 -852.25 -1058.16 -854.14193 -1064.21482 C -850.23 -1065.43 -852.25 -1058.16 -867.2607 -1051.47061 C -882.28 -1044.78 -884.46 -1038.11 -880.69465 -1038.59835 C -882.28 -1044.78 -884.46 -1038.11 -875.032 -1027.77805 C -865.6 -1017.44 -868.32 -1010.28 -869.58506 -1017.17393 C -865.6 -1017.44 -868.32 -1010.28 -883.94919 -1004.26957 C -899.58 -998.25 -902.41 -991.7 -898.64155 -991.22237 C -899.58 -998.25 -902.41 -991.7 -894.00274 -980.97033 C -885.6 -970.24 -889 -963.22 -889.5574 -970.96048 C -885.6 -970.24 -889 -963.22 -905.18187 -957.9053 C -921.36 -952.59 -924.82 -946.17 -921.14976 -944.67718 C -921.36 -952.59 -924.82 -946.17 -917.47462 -935.09916 C -910.13 -924.02 -914.21 -917.16 -913.96816 -925.78958 C -910.13 -924.02 -914.21 -917.16 -930.86782 -912.57634 C -947.53 -907.99 -951.61 -901.74 -948.12999 -899.13855 C -947.53 -907.99 -951.61 -901.74 -945.34713 -890.36096 C -939.09 -878.99 -943.83 -872.32 -942.70567 -881.87649 C -939.09 -878.99 -943.83 -872.32 -960.89705 -868.47681 C -977.97 -864.63 -982.64 -858.57 -979.47645 -854.76975 C -977.97 -864.63 -982.64 -858.57 -977.50092 -846.94731 C -972.36 -835.32 -977.73 -828.88 -975.63728 -839.43803 C -972.36 -835.32 -977.73 -828.88 -995.14096 -825.79553 C -1012.55 -822.71 -1017.8 -816.87 -1015.06834 -811.71592 C -1012.55 -822.71 -1017.8 -816.87 -1013.79829 -805.04411 C -1009.8 -793.22 -1015.78 -787.02 -1012.60913 -798.69534 C -1009.8 -793.22 -1015.78 -787.02 -1033.45292 -784.71527 C -1051.12 -782.41 -1056.93 -776.81 -1054.77198 -770.09473 C -1051.12 -782.41 -1056.93 -776.81 -1054.08381 -764.83079 C -1051.24 -752.85 -1057.81 -746.94 -1053.44548 -759.87899 C -1051.24 -752.85 -1057.81 -746.94 -1075.66888 -745.41196 C -1093.53 -743.89 -1099.86 -738.56 -1098.44426 -729.9791 C -1093.53 -743.89 -1099.86 -738.56 -1098.18499 -726.47956 C -1097.43 -721.05 -1098.46 -716.92 -1097.94736 -723.2386 C -1097.43 -721.05 -1098.46 -716.92 -1101.45005 -713.96421" />
    <path d="M -220.09107 1658.53577 L -220.09107 -142.67555" />
    <path d="M -1101.45005 1087.24711 L -220.09107 1658.53577 C -217.13 1655.9 -215.6 1652.14 -215.19222 1647.07942 C -214.22 1634.96 -205.94 1630.12 -188.00655 1631.17379 C -170.08 1632.23 -162.21 1627.92 -160.06335 1615.87625 C -157.92 1603.83 -149.18 1599.36 -131.39255 1601.20315 C -113.6 1603.04 -105.34 1599.1 -102.02486 1587.17023 C -98.71 1575.25 -89.57 1571.17 -71.99172 1573.79251 C -54.42 1576.41 -45.79 1572.84 -41.32529 1561.08431 C -36.86 1549.33 -27.34 1545.67 -10.05841 1549.05924 C 7.22 1552.45 16.18 1549.26 21.77544 1537.73017 C 27.37 1526.2 37.23 1522.96 54.14216 1527.10925 C 71.06 1531.25 80.31 1528.47 87.00711 1517.20784 C 93.71 1505.95 103.86 1503.15 120.33509 1508.03654 C 136.81 1512.92 146.31 1510.55 154.09041 1499.60518 C 161.87 1488.66 172.27 1486.32 188.23692 1491.92278 C 204.21 1497.52 213.91 1495.57 222.73806 1484.99757 C 231.56 1474.42 242.17 1472.55 257.55689 1478.83697 C 271.45 1484.51 280.84 1483.83 289.7712 1476.17705 C 290.32 1475.59 290.85 1474.98 291.37868 1474.32747 L 292.70291 1473.39926 C 296.02 1469.98 299.44 1467.56 303.09316 1466.11631 L 305.7221 1464.27358 C 311.23 1463.02 317.72 1463.81 325.89102 1466.48775 C 342.08 1471.78 352.45 1469.21 359.66474 1458.09131 C 366.88 1446.98 376.16 1444.38 392.92337 1448.80759 C 409.68 1453.23 419.72 1450.11 425.61563 1438.6509 C 431.51 1427.19 440.47 1424.11 457.69112 1427.6369 C 474.91 1431.16 484.55 1427.52 489.10037 1415.78257 C 493.65 1404.04 502.21 1400.51 519.79495 1403.1062 C 537.38 1405.71 546.56 1401.57 549.72754 1389.62733 C 552.89 1377.68 561.02 1373.7 578.85198 1375.36675 C 596.68 1377.03 605.36 1372.42 607.12336 1360.34643 C 608.89 1348.27 616.53 1343.87 634.49809 1344.58955 C 652.47 1345.3 660.58 1340.25 660.93396 1328.12039 C 661.29 1315.99 668.39 1311.2 686.39021 1310.96436 C 704.39 1310.73 711.89 1305.26 710.92526 1295.30378 L 710.92526 -505.90754" />
    <path d="M 289.7712 1476.17705 L 289.7712 -325.03427" />
    <path d="M 291.37868 1474.32747 L 291.37868 -326.88385" />
    <path d="M 292.70291 1473.39926 L 292.70291 -327.81206" />
    <path d="M 303.09316 1466.11631 L 303.09316 -335.09501" />
    <path d="M 305.7221 1464.27358 L 305.7221 -336.93774" />
    <path d="M 686.39021 1310.96436 L 686.39021 -490.24696" />
    <path d="M 710.92526 1287.80642 C 709.77 1281.04 716.3 1275.89 734.20841 1274.6985 C 752.12 1273.51 758.96 1267.66 756.98221 1260.04738 L 756.98221 -541.16394" />
    <path d="M 756.98221 1245.615 C 754.03 1243.63 759.94 1238.15 777.65788 1236.01555 C 795.38 1233.88 801.52 1227.69 798.7641 1221.99552 L 798.7641 -579.2158" />
    <path d="M 798.7641 1202.5753 C 793.8 1203.99 799.05 1198.22 816.47073 1195.154 C 833.89 1192.09 839.29 1185.59 835.96862 1181.53942 L 835.96862 -619.6719" />
    <path d="M 835.96862 1158.21391 C 828.84 1162.37 833.4 1156.34 850.40766 1152.36579 C 867.41 1148.39 872.04 1141.63 868.3361 1139.02547 L 868.3361 -662.18585" />
    <path d="M 868.3361 1112.40387 C 858.92 1119.03 862.77 1112.78 879.25946 1107.91471 L 879.25946 -693.29661" />
    <path d="M 879.25946 1107.91471 C 895.75 1103.05 899.58 1096.07 895.64589 1094.77972 L 895.64589 -706.4316" />
    <path d="M 895.64589 1065.18032 C 883.87 1074.23 886.97 1067.79 902.84823 1062.07483 L 902.84823 -739.13649" />
    <path d="M 902.84823 1062.07483 C 918.72 1056.36 921.72 1049.19 917.71472 1049.11943 L 917.71472 -752.09189" />
    <path d="M 917.71472 1016.66161 C 903.52 1028.25 905.87 1021.67 921.02854 1015.12875 L 921.02854 -786.08257" />
    <path d="M 921.02854 1015.12875 C 936.19 1008.59 938.34 1001.28 934.39609 1002.35879 L 934.39609 -798.85253" />
    <path d="M 934.39609 966.99919 C 948.04 960.04 949.34 952.65 945.58008 954.81148 L 945.58008 -846.39984" />
    <path d="M 945.58008 915.77196 C 954.2 911.02 954.64 903.58 951.1933 906.79166 L 951.1933 -894.41966" />
    <path d="M 951.1933 858.90331 C 954.64 861.83 954.21 854.39 951.19903 858.61404 L 951.19903 -942.59728" />
    <path d="M -865.80229 -1052.14183 L -865.80229 -1081.48781" />
    <path d="M -215.19222 1647.07942 L -215.19222 -154.1319" />
    <path d="M -188.00655 1631.17379 L -188.00655 -170.03753" />
    <path d="M -160.06335 1615.87625 L -160.06335 -185.33507" />
    <path d="M -131.39255 1601.20315 L -131.39255 -200.00817" />
    <path d="M -102.02486 1587.17023 L -102.02486 -214.04109" />
    <path d="M -71.99172 1573.79251 L -71.99172 -227.41881" />
    <path d="M -41.32529 1561.08431 L -41.32529 -240.12701" />
    <path d="M -10.05841 1549.05924 L -10.05841 -252.15208" />
    <path d="M 21.77544 1537.73017 L 21.77544 -263.48115" />
    <path d="M 54.14216 1527.10925 L 54.14216 -274.10207" />
    <path d="M 87.00711 1517.20784 L 87.00711 -284.00348" />
    <path d="M 120.33509 1508.03654 L 120.33509 -293.17478" />
    <path d="M 154.09041 1499.60518 L 154.09041 -301.60614" />
    <path d="M 188.23692 1491.92278 L 188.23692 -309.28854" />
    <path d="M 222.73806 1484.99757 L 222.73806 -316.21375" />
    <path d="M 257.55689 1478.83697 L 257.55689 -322.37435" />
    <path d="M 325.89102 1466.48775 L 325.89102 -334.72357" />
    <path d="M 359.66474 1458.09131 L 359.66474 -343.12001" />
    <path d="M 392.92337 1448.80759 L 392.92337 -352.40373" />
    <path d="M 425.61563 1438.6509 L 425.61563 -362.56042" />
    <path d="M 457.69112 1427.6369 L 457.69112 -373.57442" />
    <path d="M 489.10037 1415.78257 L 489.10037 -385.42875" />
    <path d="M 519.79495 1403.1062 L 519.79495 -398.10512" />
    <path d="M 549.72754 1389.62733 L 549.72754 -411.58399" />
    <path d="M 578.85198 1375.36675 L 578.85198 -425.84457" />
    <path d="M 607.12336 1360.34643 L 607.12336 -440.86489" />
    <path d="M 634.49809 1344.58955 L 634.49809 -456.62177" />
    <path d="M 660.93396 1328.12039 L 660.93396 -473.09093" />
    <path d="M 734.20841 1274.6985 L 734.20841 -526.51282" />
    <path d="M 777.65788 1236.01555 L 777.65788 -565.19577" />
    <path d="M 816.47073 1195.154 L 816.47073 -606.05732" />
    <path d="M 850.40766 1152.36579 L 850.40766 -648.84553" />
    <path d="M 933.6883 -802.28075 L 933.6883 -833.8454" />
    <path d="M 940.74947 -855.4023 L 940.74947 -882.13052" />
    <path d="M 942.16851 -906.37395 L 942.16851 -930.64021" />
    <path d="M 937.93667 -956.68428 L 937.93667 -979.07542" />
    <path d="M 928.08004 -1006.45841 L 928.08004 -1027.13751" />
    <path d="M 912.65939 -1055.47332 L 912.65939 -1074.53017" />
    <path d="M 891.76979 -1103.51267 L 891.76979 -1120.96121" />
    <path d="M 865.54004 -1150.37936 L 865.54004 -1166.14436" />
    <path d="M 834.13185 -1195.9137 L 834.13185 -1209.80106" />
    <path d="M 797.73885 -1240.02407 L 797.73885 -1251.66215" />
    <path d="M 756.58544 -1282.74783 L 756.58544 -1291.46953" />
    <path d="M 710.92533 -1324.39242 L 710.92533 -1328.97779" />
    <path d="M -659.60498 -1324.47689 L -659.60498 -1329.05193" />
    <path d="M -705.27402 -1282.83386 L -705.27402 -1291.54861" />
    <path d="M -746.43691 -1240.11275 L -746.43691 -1251.74568" />
    <path d="M -782.83987 -1196.00531 L -782.83987 -1209.88853" />
    <path d="M -814.25846 -1150.47382 L -814.25846 -1166.23523" />
    <path d="M -840.49897 -1103.6097 L -840.49897 -1121.05491" />
    <path d="M -860.64363 -1054.99799 L -860.64363 -1075.32187" />
    <path d="M -875.032 -1008.74467 L -875.032 -1027.77805" />
    <path d="M -894.00274 -963.23272 L -894.00274 -980.97033" />
    <path d="M -917.47462 -918.70684 L -917.47462 -935.09916" />
    <path d="M -945.34713 -875.41811 L -945.34713 -890.36096" />
    <path d="M -977.50092 -833.62986 L -977.50092 -846.94731" />
    <path d="M -1013.79829 -793.62758 L -1013.79829 -805.04411" />
    <path d="M -1054.08381 -755.73628 L -1054.08381 -764.83079" />
    <path d="M -1098.18499 -720.3528 L -1098.18499 -726.47956" />
    <path d="M 945.59725 -951.56898 L 945.59725 -990.61775" />
    <path d="M 934.42459 -1002.80046 L 934.42459 -1038.16634" />
    <path d="M 917.75435 -1052.46526 L 917.75435 -1084.9289" />
    <path d="M 895.69639 -1100.98647 L 895.69639 -1130.59176" />
    <path d="M 868.39714 -1148.2128 L 868.39714 -1174.84073" />
    <path d="M 836.03978 -1194.0258 L 836.03978 -1217.35854" />
    <path d="M 798.84489 -1238.39009 L 798.84489 -1257.8192" />
    <path d="M 757.07206 -1281.43219 L 757.07206 -1295.87634" />
    <path d="M 711.02352 -1323.62443 L 711.02352 -1331.13891" />
    <path d="M -659.70265 -1323.71045 L -659.70265 -1331.20781" />
    <path d="M -705.75959 -1281.51903 L -705.75959 -1295.9514" />
    <path d="M -747.54148 -1238.47932 L -747.54148 -1257.89955" />
    <path d="M -784.74601 -1194.11793 L -784.74601 -1217.44344" />
    <path d="M -817.11349 -1148.30789 L -817.11349 -1174.9295" />
    <path d="M -844.42328 -1101.08435 L -844.42328 -1130.68374" />
    <path d="M -866.49211 -1051.81886 L -866.49211 -1085.02345" />
    <path d="M -880.69465 -1005.62278 L -880.69465 -1038.59835" />
    <path d="M -898.64155 -960.47448 L -898.64155 -991.22237" />
    <path d="M -921.14976 -916.23427 L -921.14976 -944.67718" />
    <path d="M -948.12999 -873.17355 L -948.12999 -899.13855" />
    <path d="M -979.47645 -831.58177 L -979.47645 -854.76975" />
    <path d="M -1015.06834 -791.78078 L -1015.06834 -811.71592" />
    <path d="M -1054.77198 -754.15035 L -1054.77198 -770.09473" />
    <path d="M -1098.44426 -719.17612 L -1098.44426 -729.9791" />
</svg>