<svg version="1.1" xmlns="http://www.w3.org/2000/svg" viewBox="-1102.4500519939988 -86.75365916718015 2054.6490871341475 179.82780689027214" fill="none" stroke="black" stroke-width="0.6%" vector-effect="non-scaling-stroke">
    <path d="M -1101.45005 60.33439 L -1101.45005 -39.59547 L -220.09107 -7.85571 C -217.13 -8 -215.6 -8.21 -215.19222 -8.4922 C -214.22 -9.17 -205.94 -9.43 -188.00655 -9.37589 C -170.08 -9.32 -162.21 -9.56 -160.06335 -10.22579 C -157.92 -10.9 -149.18 -11.14 -131.39255 -11.041 C -113.6 -10.94 -105.34 -11.16 -102.02486 -11.82065 C -98.71 -12.48 -89.57 -12.71 -71.99172 -12.56389 C -54.42 -12.42 -45.79 -12.62 -41.32529 -13.26993 C -36.86 -13.92 -27.34 -14.13 -10.05841 -13.93802 C 7.22 -13.75 16.18 -13.93 21.77544 -14.56745 C 27.37 -15.21 37.23 -15.39 54.14216 -15.15753 C 71.06 -14.93 80.31 -15.08 87.00711 -15.70763 C 93.71 -16.33 103.86 -16.49 120.33509 -16.21717 C 136.81 -15.95 146.31 -16.08 154.09041 -16.6856 C 161.87 -17.29 172.27 -17.42 188.23692 -17.11242 C 204.21 -16.8 213.91 -16.91 222.73806 -17.49717 C 231.56 -18.08 242.17 -18.19 257.55689 -17.83945 C 271.45 -17.52 280.84 -17.56 289.7712 -17.98723 C 290.32 -18.02 290.85 -18.05 291.37868 -18.08999 L 292.70291 -18.14156 C 296.02 -18.33 299.44 -18.47 303.09316 -18.54618 L 305.7221 -18.64856 C 311.23 -18.72 317.72 -18.67 325.89102 -18.52555 C 342.08 -18.23 352.45 -18.37 359.66474 -18.99204 C 366.88 -19.61 376.16 -19.75 392.92337 -19.50782 C 409.68 -19.26 419.72 -19.44 425.61563 -20.07211 C 431.51 -20.71 440.47 -20.88 457.69112 -20.68403 C 474.91 -20.49 484.55 -20.69 489.10037 -21.34263 C 493.65 -21.99 502.21 -22.19 519.79495 -22.04691 C 537.38 -21.9 546.56 -22.13 549.72754 -22.79577 C 552.89 -23.46 561.02 -23.68 578.85198 -23.58806 C 596.68 -23.5 605.36 -23.75 607.12336 -24.42257 C 608.89 -25.09 616.53 -25.34 634.49809 -25.29799 C 652.47 -25.26 660.58 -25.54 660.93396 -26.21299 C 661.29 -26.89 668.39 -27.15 686.39021 -27.16614 C 704.39 -27.18 711.89 -27.48 710.92526 -28.03622 C 704.39 -27.18 711.89 -27.48 710.82759 -28.15599 C 709.77 -28.83 716.3 -29.11 710.71813 -28.28902 C 709.77 -28.83 716.3 -29.11 734.20841 -29.18101 C 752.12 -29.25 758.96 -29.57 756.98221 -29.995 C 752.12 -29.25 758.96 -29.57 756.49663 -30.23961 C 754.03 -30.91 759.94 -31.21 755.96294 -30.50428 C 754.03 -30.91 759.94 -31.21 777.65788 -31.33016 C 795.38 -31.45 801.52 -31.79 798.7641 -32.10909 C 795.38 -31.45 801.52 -31.79 797.65953 -32.45099 C 793.8 -33.11 799.05 -33.43 796.46265 -32.81442 C 793.8 -33.11 799.05 -33.43 816.47073 -33.60036 C 833.89 -33.77 839.29 -34.13 835.96862 -34.35676 C 833.89 -33.77 839.29 -34.13 834.06248 -34.7765 C 828.84 -35.42 833.4 -35.76 832.0194 -35.21703 C 828.84 -35.42 833.4 -35.76 850.40766 -35.97759 C 867.41 -36.2 872.04 -36.57 868.3361 -36.71876 C 867.41 -36.2 872.04 -36.57 865.48107 -37.20179 C 858.92 -37.83 862.77 -38.18 862.44715 -37.70394 C 858.92 -37.83 862.77 -38.18 879.25946 -38.44721 C 895.75 -38.72 899.58 -39.11 895.64589 -39.17697 C 895.75 -38.72 899.58 -39.11 891.72158 -39.71193 C 883.87 -40.32 886.97 -40.68 887.58042 -40.26396 C 883.87 -40.32 886.97 -40.68 902.84823 -40.99399 C 918.72 -41.31 921.72 -41.71 917.71472 -41.71377 C 918.72 -41.31 921.72 -41.71 912.62223 -42.29143 C 903.52 -42.87 905.87 -43.24 907.27929 -42.88406 C 903.52 -42.87 905.87 -43.24 921.02854 -43.60223 C 936.19 -43.97 938.34 -44.37 934.39609 -44.31171 C 936.19 -43.97 938.34 -44.37 928.05417 -44.92439 C 917.76 -45.48 919.34 -45.85 921.4325 -45.55004 C 917.76 -45.48 919.34 -45.85 933.6883 -46.25585 C 948.04 -46.66 949.34 -47.07 945.58008 -46.95335 C 948.04 -46.66 949.34 -47.07 937.92225 -47.59457 C 926.51 -48.12 927.29 -48.49 929.95936 -48.24699 C 926.51 -48.12 927.29 -48.49 940.74947 -48.93848 C 954.2 -49.39 954.64 -49.8 951.1933 -49.62124 C 954.2 -49.39 954.64 -49.8 942.16562 -50.28552 C 929.69 -50.77 929.69 -51.15 932.81099 -50.95953 C 929.69 -50.77 929.69 -51.15 942.16851 -51.63359 C 954.64 -52.12 954.21 -52.53 951.19903 -52.29791 C 954.64 -52.12 954.21 -52.53 940.75813 -52.98063 C 927.3 -53.43 926.52 -53.8 929.97099 -53.67209 C 927.3 -53.43 926.52 -53.8 937.93667 -54.32456 C 949.36 -54.85 948.06 -55.26 945.59725 -54.96583 C 949.36 -54.85 948.06 -55.26 933.70846 -55.66331 C 919.36 -56.07 917.79 -56.44 921.45569 -56.36909 C 919.36 -56.07 917.79 -56.44 928.08004 -56.99481 C 938.37 -57.55 936.22 -57.95 934.42459 -57.60755 C 938.37 -57.55 936.22 -57.95 921.06007 -58.317 C 905.9 -58.68 903.56 -59.05 907.3139 -59.03515 C 905.9 -58.68 903.56 -59.05 912.65939 -59.62786 C 921.76 -60.21 918.76 -60.61 917.75435 -60.20559 C 921.76 -60.21 918.76 -60.61 902.89094 -60.92535 C 887.02 -61.24 883.91 -61.6 887.62626 -61.65536 C 887.02 -61.24 883.91 -61.6 891.76979 -62.20748 C 899.63 -62.81 895.8 -63.2 895.69639 -62.74254 C 899.63 -62.81 895.8 -63.2 879.31309 -63.47227 C 862.82 -63.74 858.98 -64.09 862.50397 -64.21551 C 862.82 -63.74 858.98 -64.09 865.54004 -64.71777 C 872.1 -65.35 867.48 -65.72 868.39714 -65.20093 C 872.1 -65.35 867.48 -65.72 850.47188 -65.94207 C 833.47 -66.16 828.91 -66.5 832.08688 -66.70259 C 833.47 -66.16 828.91 -66.5 834.13185 -67.14326 C 839.36 -67.79 833.96 -68.15 836.03978 -67.56314 C 839.36 -67.79 833.96 -68.15 816.54513 -68.31951 C 799.13 -68.49 793.88 -68.81 796.54042 -69.10537 C 799.13 -68.49 793.88 -68.81 797.73885 -69.46899 C 801.6 -70.13 795.46 -70.47 798.84489 -69.81106 C 801.6 -70.13 795.46 -70.47 777.74201 -70.58993 C 760.02 -70.71 754.12 -71.01 756.05062 -71.41571 C 760.02 -70.71 754.12 -71.01 756.58544 -71.68061 C 759.05 -72.35 752.21 -72.67 757.07206 -71.92545 C 759.05 -72.35 752.21 -72.67 734.30176 -72.73935 C 716.39 -72.81 709.86 -73.09 710.8153 -73.63116 C 716.39 -72.81 709.86 -73.09 710.92533 -73.7645 C 711.99 -74.44 704.49 -74.74 711.02352 -73.88457 C 711.99 -74.44 704.49 -74.74 686.49219 -74.7545 C 668.5 -74.77 661.39 -75.03 661.04003 -75.70781 C 660.69 -76.38 652.58 -76.66 634.60808 -76.62297 C 616.64 -76.58 609 -76.83 607.2371 -77.49856 C 605.47 -78.17 596.8 -78.43 578.96929 -78.33323 C 561.14 -78.24 553.01 -78.46 549.84825 -79.12569 C 546.69 -79.79 537.5 -80.02 519.91887 -79.87474 C 502.34 -79.73 493.77 -79.93 489.22731 -80.5792 C 484.68 -81.23 475.05 -81.43 457.82088 -81.23799 C 440.6 -81.04 431.64 -81.21 425.74802 -81.8501 C 419.85 -82.49 409.82 -82.66 393.05818 -82.41458 C 376.3 -82.17 367.01 -82.31 359.80176 -82.93057 C 352.59 -83.55 342.23 -83.69 326.03004 -83.39726 C 309.83 -83.1 300.28 -83.22 291.7951 -83.81395 C 283.31 -84.41 272.68 -84.52 257.14972 -84.17997 C 241.62 -83.84 231.85 -83.93 222.14733 -84.49478 C 212.44 -85.06 201.61 -85.14 186.84189 -84.75788 C 172.07 -84.37 162.15 -84.43 151.28785 -84.96888 C 140.43 -85.51 129.45 -85.55 115.54002 -85.12743 C 101.63 -84.7 91.61 -84.73 79.65353 -85.23331 C 67.7 -85.74 56.66 -85.75 43.68371 -85.28634 C 30.71 -84.82 20.66 -84.82 7.68602 -85.28645 C -5.29 -85.75 -16.33 -85.74 -28.28403 -85.23363 C -40.24 -84.73 -50.26 -84.7 -64.17097 -85.12797 C -78.08 -85.56 -89.06 -85.51 -99.91948 -84.96963 C -110.78 -84.43 -120.71 -84.37 -135.47443 -84.75885 C -150.24 -85.14 -161.08 -85.06 -170.78099 -84.49596 C -180.49 -83.93 -190.26 -83.84 -205.78473 -84.18136 C -221.31 -84.52 -231.95 -84.41 -240.43168 -83.81555 C -248.92 -83.22 -258.47 -83.1 -274.66841 -83.39907 C -290.86 -83.69 -301.23 -83.55 -308.44213 -82.93258 C -315.66 -82.32 -324.94 -82.17 -341.70076 -82.41679 C -358.46 -82.66 -368.49 -82.49 -374.39302 -81.85251 C -380.29 -81.22 -389.25 -81.04 -406.46851 -81.24059 C -423.69 -81.44 -433.33 -81.23 -437.87775 -80.58198 C -442.42 -79.93 -450.99 -79.73 -468.57234 -79.87771 C -486.15 -80.02 -495.34 -79.79 -498.50493 -79.12885 C -501.67 -78.47 -509.8 -78.24 -527.62936 -78.33655 C -545.46 -78.43 -554.14 -78.17 -555.90075 -77.50205 C -557.67 -76.83 -565.31 -76.59 -583.27548 -76.62663 C -601.24 -76.67 -609.36 -76.39 -609.71135 -75.71163 C -610.07 -75.04 -617.17 -74.77 -635.1676 -74.75847 C -653.16 -74.75 -660.66 -74.44 -659.70265 -73.8884 C -653.16 -74.75 -660.66 -74.44 -659.60498 -73.76862 C -658.55 -73.1 -665.07 -72.81 -659.49552 -73.6356 C -658.55 -73.1 -665.07 -72.81 -682.9858 -72.74361 C -700.9 -72.68 -707.74 -72.35 -705.75959 -71.92962 C -700.9 -72.68 -707.74 -72.35 -705.27402 -71.68501 C -702.81 -71.02 -708.72 -70.71 -704.74033 -71.42034 C -702.81 -71.02 -708.72 -70.71 -726.43527 -70.59445 C -744.15 -70.48 -750.29 -70.13 -747.54148 -69.81553 C -744.15 -70.48 -750.29 -70.13 -746.43691 -69.47363 C -742.58 -68.82 -747.83 -68.49 -745.24004 -69.11019 C -742.58 -68.82 -747.83 -68.49 -765.24812 -68.32426 C -782.66 -68.15 -788.06 -67.79 -784.74601 -67.56786 C -782.66 -68.15 -788.06 -67.79 -782.83987 -67.14812 C -777.62 -66.5 -782.18 -66.17 -780.79679 -66.70759 C -777.62 -66.5 -782.18 -66.17 -799.18505 -65.94702 C -816.19 -65.73 -820.82 -65.35 -817.11349 -65.20586 C -816.19 -65.73 -820.82 -65.35 -814.25846 -64.72282 C -807.7 -64.1 -811.55 -63.75 -811.22454 -64.22067 C -807.7 -64.1 -811.55 -63.75 -828.03685 -63.4774 C -844.53 -63.21 -848.35 -62.82 -844.42328 -62.74765 C -844.53 -63.21 -848.35 -62.82 -840.49897 -62.21269 C -832.65 -61.61 -835.75 -61.25 -836.3578 -61.66065 C -832.65 -61.61 -835.75 -61.25 -851.62561 -60.93062 C -863.77 -60.69 -868.38 -60.4 -866.49211 -60.21084 C -863.77 -60.69 -868.38 -60.4 -865.80229 -60.01441 C -864.68 -59.91 -862.96 -59.79 -860.64363 -59.67184 C -850.23 -59.12 -852.25 -58.72 -854.14193 -59.05475 C -850.23 -59.12 -852.25 -58.72 -867.2607 -58.34671 C -882.28 -57.97 -884.46 -57.6 -880.69465 -57.63155 C -882.28 -57.97 -884.46 -57.6 -875.032 -57.03039 C -865.6 -56.46 -868.32 -56.06 -869.58506 -56.44125 C -865.6 -56.46 -868.32 -56.06 -883.94919 -55.72431 C -899.58 -55.39 -902.41 -55.03 -898.64155 -54.99943 C -899.58 -55.39 -902.41 -55.03 -894.00274 -54.42984 C -885.6 -53.83 -889 -53.44 -889.5574 -53.87371 C -885.6 -53.83 -889 -53.44 -905.18187 -53.14839 C -921.36 -52.85 -924.82 -52.5 -921.14976 -52.41346 C -921.36 -52.85 -924.82 -52.5 -917.47462 -51.88132 C -910.13 -51.27 -914.21 -50.88 -913.96816 -51.3641 C -910.13 -51.27 -914.21 -50.88 -930.86782 -50.63 C -947.53 -50.38 -951.61 -50.03 -948.12999 -49.88342 C -947.53 -50.38 -951.61 -50.03 -945.34713 -49.39575 C -939.09 -48.76 -943.83 -48.39 -942.70567 -48.92437 C -939.09 -48.76 -943.83 -48.39 -960.89705 -48.17991 C -977.97 -47.97 -982.64 -47.63 -979.47645 -47.41837 C -977.97 -47.97 -982.64 -47.63 -977.50092 -46.98377 C -972.36 -46.34 -977.73 -45.98 -975.63728 -46.56656 C -972.36 -46.34 -977.73 -45.98 -995.14096 -45.80861 C -1012.55 -45.64 -1017.8 -45.31 -1015.06834 -45.02637 C -1012.55 -45.64 -1017.8 -45.31 -1013.79829 -44.6557 C -1009.8 -44 -1015.78 -43.65 -1012.60913 -44.30298 C -1009.8 -44 -1015.78 -43.65 -1033.45292 -43.52627 C -1051.12 -43.4 -1056.93 -43.09 -1054.77198 -42.71398 C -1051.12 -43.4 -1056.93 -43.09 -1054.08381 -42.42152 C -1051.24 -41.76 -1057.81 -41.43 -1053.44548 -42.14641 C -1051.24 -41.76 -1057.81 -41.43 -1075.66888 -41.34265 C -1093.53 -41.26 -1099.86 -40.96 -1098.44426 -40.48523 C -1093.53 -41.26 -1099.86 -40.96 -1098.18499 -40.2908 C -1097.43 -39.99 -1098.46 -39.76 -1097.94736 -40.11074 C -1097.43 -39.99 -1098.46 -39.76 -1101.45005 -39.59547" />
    <path d="M -220.09107 92.07415 L -220.09107 -7.85571" />
    <path d="M -1101.45005 60.33439 L -220.09107 92.07415 C -217.13 91.93 -215.6 91.72 -215.19222 91.43765 C -214.22 90.76 -205.94 90.5 -188.00655 90.55397 C -170.08 90.61 -162.21 90.37 -160.06335 89.70406 C -157.92 89.03 -149.18 88.79 -131.39255 88.88885 C -113.6 88.99 -105.34 88.77 -102.02486 88.10921 C -98.71 87.45 -89.57 87.22 -71.99172 87.36597 C -54.42 87.51 -45.79 87.31 -41.32529 86.65992 C -36.86 86.01 -27.34 85.8 -10.05841 85.99183 C 7.22 86.18 16.18 86 21.77544 85.36241 C 27.37 84.72 37.23 84.54 54.14216 84.77233 C 71.06 85 80.31 84.85 87.00711 84.22222 C 93.71 83.6 103.86 83.44 120.33509 83.71268 C 136.81 83.98 146.31 83.85 154.09041 83.24425 C 161.87 82.64 172.27 82.51 188.23692 82.81743 C 204.21 83.13 213.91 83.02 222.73806 82.43268 C 231.56 81.85 242.17 81.74 257.55689 82.09041 C 271.45 82.41 280.84 82.37 289.7712 81.94263 C 290.32 81.91 290.85 81.88 291.37868 81.83987 L 292.70291 81.7883 C 296.02 81.6 299.44 81.46 303.09316 81.38367 L 305.7221 81.28129 C 311.23 81.21 317.72 81.26 325.89102 81.40431 C 342.08 81.7 352.45 81.56 359.66474 80.93782 C 366.88 80.32 376.16 80.18 392.92337 80.42203 C 409.68 80.67 419.72 80.49 425.61563 79.85774 C 431.51 79.22 440.47 79.05 457.69112 79.24582 C 474.91 79.44 484.55 79.24 489.10037 78.58722 C 493.65 77.94 502.21 77.74 519.79495 77.88294 C 537.38 78.03 546.56 77.8 549.72754 77.13408 C 552.89 76.47 561.02 76.25 578.85198 76.34179 C 596.68 76.43 605.36 76.18 607.12336 75.50729 C 608.89 74.84 616.53 74.59 634.49809 74.63187 C 652.47 74.67 660.58 74.39 660.93396 73.71687 C 661.29 73.04 668.39 72.78 686.39021 72.76371 C 704.39 72.75 711.89 72.45 710.92526 71.89364 L 710.92526 -28.03622" />
    <path d="M 289.7712 81.94263 L 289.7712 -17.98723" />
    <path d="M 291.37868 81.83987 L 291.37868 -18.08999" />
    <path d="M 292.70291 81.7883 L 292.70291 -18.14156" />
    <path d="M 303.09316 81.38367 L 303.09316 -18.54618" />
    <path d="M 305.7221 81.28129 L 305.7221 -18.64856" />
    <path d="M 686.39021 72.76371 L 686.39021 -27.16614" />
    <path d="M 710.92526 71.4771 C 709.77 71.1 716.3 70.81 734.20841 70.74885 C 752.12 70.68 758.96 70.36 756.98221 69.93486 L 756.98221 -29.995" />
    <path d="M 756.98221 69.13302 C 754.03 69.02 759.94 68.72 777.65788 68.59969 C 795.38 68.48 801.52 68.14 798.7641 67.82076 L 798.7641 -32.10909" />
    <path d="M 798.7641 66.74181 C 793.8 66.82 799.05 66.5 816.47073 66.3295 C 833.89 66.16 839.29 65.8 835.96862 65.5731 L 835.96862 -34.35676" />
    <path d="M 835.96862 64.27717 C 828.84 64.51 833.4 64.17 850.40766 63.95226 C 867.41 63.73 872.04 63.36 868.3361 63.2111 L 868.3361 -36.71876" />
    <path d="M 868.3361 61.73205 C 858.92 62.1 862.77 61.75 879.25946 61.48264 L 879.25946 -38.44721" />
    <path d="M 879.25946 61.48264 C 895.75 61.21 899.58 60.82 895.64589 60.75288 L 895.64589 -39.17697" />
    <path d="M 895.64589 59.1084 C 883.87 59.61 886.97 59.25 902.84823 58.93586 L 902.84823 -40.99399" />
    <path d="M 902.84823 58.93586 C 918.72 58.62 921.72 58.22 917.71472 58.21608 L 917.71472 -41.71377" />
    <path d="M 917.71472 56.41278 C 903.52 57.06 905.87 56.69 921.02854 56.32762 L 921.02854 -43.60223" />
    <path d="M 921.02854 56.32762 C 936.19 55.96 938.34 55.56 934.39609 55.61815 L 934.39609 -44.31171" />
    <path d="M 934.39609 53.65363 C 948.04 53.27 949.34 52.86 945.58008 52.9765 L 945.58008 -46.95335" />
    <path d="M 945.58008 50.80754 C 954.2 50.54 954.64 50.13 951.1933 50.30861 L 951.1933 -49.62124" />
    <path d="M 951.1933 47.64802 C 954.64 47.81 954.21 47.4 951.19903 47.63195 L 951.19903 -52.29791" />
    <path d="M -865.80229 -58.384 L -865.80229 -60.01441" />
    <path d="M -215.19222 91.43765 L -215.19222 -8.4922" />
    <path d="M -188.00655 90.55397 L -188.00655 -9.37589" />
    <path d="M -160.06335 89.70406 L -160.06335 -10.22579" />
    <path d="M -131.39255 88.88885 L -131.39255 -11.041" />
    <path d="M -102.02486 88.10921 L -102.02486 -11.82065" />
    <path d="M -71.99172 87.36597 L -71.99172 -12.56389" />
    <path d="M -41.32529 86.65992 L -41.32529 -13.26993" />
    <path d="M -10.05841 85.99183 L -10.05841 -13.93802" />
    <path d="M 21.77544 85.36241 L 21.77544 -14.56745" />
    <path d="M 54.14216 84.77233 L 54.14216 -15.15753" />
    <path d="M 87.00711 84.22222 L 87.00711 -15.70763" />
    <path d="M 120.33509 83.71268 L 120.33509 -16.21717" />
    <path d="M 154.09041 83.24425 L 154.09041 -16.6856" />
    <path d="M 188.23692 82.81743 L 188.23692 -17.11242" />
    <path d="M 222.73806 82.43268 L 222.73806 -17.49717" />
    <path d="M 257.55689 82.09041 L 257.55689 -17.83945" />
    <path d="M 325.89102 81.40431 L 325.89102 -18.52555" />
    <path d="M 359.66474 80.93782 L 359.66474 -18.99204" />
    <path d="M 392.92337 80.42203 L 392.92337 -19.50782" />
    <path d="M 425.61563 79.85774 L 425.61563 -20.07211" />
    <path d="M 457.69112 79.24582 L 457.69112 -20.68403" />
    <path d="M 489.10037 78.58722 L 489.10037 -21.34263" />
    <path d="M 519.79495 77.88294 L 519.79495 -22.04691" />
    <path d="M 549.72754 77.13408 L 549.72754 -22.79577" />
    <path d="M 578.85198 76.34179 L 578.85198 -23.58806" />
    <path d="M 607.12336 75.50729 L 607.12336 -24.42257" />
    <path d="M 634.49809 74.63187 L 634.49809 -25.29799" />
    <path d="M 660.93396 73.71687 L 660.93396 -26.21299" />
    <path d="M 734.20841 70.74885 L 734.20841 -29.18101" />
    <path d="M 777.65788 68.59969 L 777.65788 -31.33016" />
    <path d="M 816.47073 66.3295 L 816.47073 -33.60036" />
    <path d="M 850.40766 63.95226 L 850.40766 -35.97759" />
    <path d="M 933.6883 -44.50217 L 933.6883 -46.25585" />
    <path d="M 940.74947 -47.45351 L 940.74947 -48.93848" />
    <path d="M 942.16851 -50.2854 L 942.16851 -51.63359" />
    <path d="M 937.93667 -53.08055 L 937.93667 -54.32456" />
    <path d="M 928.08004 -55.84591 L 928.08004 -56.99481" />
    <path d="M 912.65939 -58.56909 L 912.65939 -59.62786" />
    <path d="M 891.76979 -61.23807 L 891.76979 -62.20748" />
    <path d="M 865.54004 -63.8419 L 865.54004 -64.71777" />
    <path d="M 834.13185 -66.37171 L 834.13185 -67.14326" />
    <path d="M 797.73885 -68.8224 L 797.73885 -69.46899" />
    <path d="M 756.58544 -71.19605 L 756.58544 -71.68061" />
    <path d="M 710.92533 -73.50975 L 710.92533 -73.7645" />
    <path d="M -659.60498 -73.51444 L -659.60498 -73.76862" />
    <path d="M -705.27402 -71.20083 L -705.27402 -71.68501" />
    <path d="M -746.43691 -68.82732 L -746.43691 -69.47363" />
    <path d="M -782.83987 -66.3768 L -782.83987 -67.14812" />
    <path d="M -814.25846 -63.84715 L -814.25846 -64.72282" />
    <path d="M -840.49897 -61.24346 L -840.49897 -62.21269" />
    <path d="M -860.64363 -58.54268 L -860.64363 -59.67184" />
    <path d="M -875.032 -55.97293 L -875.032 -57.03039" />
    <path d="M -894.00274 -53.44437 L -894.00274 -54.42984" />
    <path d="M -917.47462 -50.9706 L -917.47462 -51.88132" />
    <path d="M -945.34713 -48.56555 L -945.34713 -49.39575" />
    <path d="M -977.50092 -46.24387 L -977.50092 -46.98377" />
    <path d="M -1013.79829 -44.02142 L -1013.79829 -44.6557" />
    <path d="M -1054.08381 -41.91625 L -1054.08381 -42.42152" />
    <path d="M -1098.18499 -39.95041 L -1098.18499 -40.2908" />
    <path d="M 945.59725 -52.79636 L 945.59725 -54.96583" />
    <path d="M 934.42459 -55.64268 L 934.42459 -57.60755" />
    <path d="M 917.75435 -58.40197 L 917.75435 -60.20559" />
    <path d="M 895.69639 -61.09772 L 895.69639 -62.74254" />
    <path d="M 868.39714 -63.72153 L 868.39714 -65.20093" />
    <path d="M 836.03978 -66.26682 L 836.03978 -67.56314" />
    <path d="M 798.84489 -68.73162 L 798.84489 -69.81106" />
    <path d="M 757.07206 -71.12296 L 757.07206 -71.92545" />
    <path d="M 711.02352 -73.46708 L 711.02352 -73.88457" />
    <path d="M -659.70265 -73.47186 L -659.70265 -73.8884" />
    <path d="M -705.75959 -71.12778 L -705.75959 -71.92962" />
    <path d="M -747.54148 -68.73657 L -747.54148 -69.81553" />
    <path d="M -784.74601 -66.27194 L -784.74601 -67.56786" />
    <path d="M -817.11349 -63.72681 L -817.11349 -65.20586" />
    <path d="M -844.42328 -61.10316 L -844.42328 -62.74765" />
    <path d="M -866.49211 -58.36606 L -866.49211 -60.21084" />
    <path d="M -880.69465 -55.79949 L -880.69465 -57.63155" />
    <path d="M -898.64155 -53.29113 L -898.64155 -54.99943" />
    <path d="M -921.14976 -50.83322 L -921.14976 -52.41346" />
    <path d="M -948.12999 -48.44085 L -948.12999 -49.88342" />
    <path d="M -979.47645 -46.13009 L -979.47645 -47.41837" />
    <path d="M -1015.06834 -43.91881 L -1015.06834 -45.02637" />
    <path d="M -1054.77198 -41.82814 L -1054.77198 -42.71398" />
    <path d="M -1098.44426 -39.88503 L -1098.44426 -40.48523" />
</svg>